<svg width="400" height="400" viewBox="0 0 400 400" fill="none" xmlns="http://www.w3.org/2000/svg">
<path d="M300 0H100C44.7715 0 0 44.7715 0 100V300C0 355.228 44.7715 400 100 400H300C355.228 400 400 355.228 400 300V100C400 44.7715 355.228 0 300 0Z" fill="#F5F5F5"/>
<path d="M225.116 179.327L323.396 65H300.107L214.77 164.268L146.612 65H68L171.068 215.111L68 335H91.2905L181.408 230.169L253.388 335H332L225.11 179.327H225.116ZM193.216 216.434L182.773 201.486L99.6824 82.5457H135.455L202.511 178.534L212.954 193.482L300.118 318.252H264.345L193.216 216.439V216.434Z" fill="black"/>
</svg>
