<svg width="400" height="400" viewBox="0 0 400 400" fill="none" xmlns="http://www.w3.org/2000/svg">
<path d="M300 0H100C44.7715 0 0 44.7715 0 100V300C0 355.228 44.7715 400 100 400H300C355.228 400 400 355.228 400 300V100C400 44.7715 355.228 0 300 0Z" fill="#F5F5F5"/>
<g clip-path="url(#clip0_371_684)">
<mask id="mask0_371_684" style="mask-type:luminance" maskUnits="userSpaceOnUse" x="11" y="11" width="378" height="378">
<path d="M11 11.0001H389V389H11V11.0001Z" fill="white"/>
</mask>
<g mask="url(#mask0_371_684)">
<path d="M335 200C335 125.442 274.558 64.9999 200 64.9999C125.442 64.9999 65 125.442 65 200C65 263.312 108.586 316.436 167.387 331.024V241.254H139.549V200H167.387V182.224C167.387 136.274 188.182 114.976 233.293 114.976C241.846 114.976 256.603 116.653 262.641 118.33V155.727C259.454 155.392 253.92 155.224 247.044 155.224C224.908 155.224 216.355 163.609 216.355 185.41V200H260.451L252.876 241.254H216.355V334.011C283.199 325.937 335 269.021 335 200Z" fill="#0866FF"/>
<path d="M252.875 241.254L260.451 200H216.355V185.41C216.355 163.609 224.908 155.224 247.044 155.224C253.92 155.224 259.454 155.392 262.64 155.727V118.331C256.603 116.653 241.845 114.976 233.293 114.976C188.182 114.976 167.387 136.274 167.387 182.224V200H139.549V241.254H167.387V331.025C177.832 333.615 188.754 335 200 335C205.537 335 210.993 334.659 216.355 334.011V241.254H252.875Z" fill="white"/>
</g>
</g>
<defs>
<clipPath id="clip0_371_684">
<rect width="270" height="270" fill="white" transform="translate(65 65)"/>
</clipPath>
</defs>
</svg>
