<svg width="400" height="400" viewBox="0 0 400 400" fill="none" xmlns="http://www.w3.org/2000/svg">
<g clip-path="url(#clip0_476_148)">
<path d="M300 0H100C44.7715 0 0 44.7715 0 100V300C0 355.228 44.7715 400 100 400H300C355.228 400 400 355.228 400 300V100C400 44.7715 355.228 0 300 0Z" fill="#F5F5F5"/>
<path d="M272.82 142.949C282.94 151.316 310.699 174.269 306.175 190.381C304.084 197.618 295.773 199.935 289.61 202.196C275.419 207.341 260.834 211.412 246.021 214.408C234.036 216.839 208.426 222.152 213.174 200.952C215.039 192.754 221.654 185.8 226.969 179.638C237.88 166.805 249.019 153.236 262.191 142.721C263.265 141.872 264.565 141.646 265.696 141.816C267.901 140.914 270.558 141.027 272.82 142.949Z" fill="#C1272D"/>
<path d="M257.895 312.101C249.019 304.921 242.743 293.67 237.316 283.834C232.001 274.336 223.635 261.784 222.221 250.761C219.338 228.09 252.184 241.716 261.626 244.995C274.176 249.404 307.815 254.267 304.084 273.883C300.974 289.882 281.696 309.387 265.584 311.875C265.415 311.932 265.188 311.875 264.963 311.875C264.906 311.932 264.849 311.988 264.794 312.044C264.341 312.27 263.833 312.553 263.323 312.779C261.4 313.798 259.535 313.402 257.895 312.101Z" fill="#C1272D"/>
<path d="M184.456 253.757C202.321 246.352 203.961 266.308 203.847 278.407C203.678 292.823 203.226 307.295 202.151 321.655C201.755 327.478 201.982 334.489 196.442 338.164C189.601 342.687 176.429 339.125 169.361 336.92C169.135 336.807 168.908 336.695 168.683 336.638C153.815 334.038 135.667 327.197 133.914 313.459C133.744 311.876 134.367 310.463 135.328 309.388C135.78 308.54 136.232 307.749 136.741 307.014C138.947 303.961 141.49 301.248 144.035 298.477C148.331 292.089 152.967 285.927 157.885 279.99C165.008 271.397 173.771 258.167 184.456 253.757Z" fill="#C1272D"/>
<path d="M187.058 191.795C160.995 170.368 135.61 137.182 122.494 106.484C112.487 83.1349 137.928 68.8885 157.545 62.4437C184.004 53.7368 194.519 61.3127 197.176 87.7714C199.381 110.555 200.399 133.508 200.228 156.404C200.172 166.072 202.885 181.675 197.232 190.382C198.136 193.945 192.766 196.488 189.713 194.057C189.26 193.718 188.809 193.265 188.3 192.869C187.848 192.586 187.452 192.247 187.058 191.795Z" fill="#C1272D"/>
<path d="M184.231 224.981C186.322 234.252 179.764 237.984 172.076 241.489C158.395 247.651 144.035 252.57 129.618 256.641C121.25 258.958 108.418 264.499 100.334 258.337C94.228 253.701 93.832 244.034 93.2671 237.023C92.0238 221.363 94.3982 183.993 116.107 182.41C126.736 181.675 140.021 191.173 148.728 196.149C160.318 202.82 172.756 210.452 181.405 220.911C182.704 221.645 183.778 222.945 184.231 224.981Z" fill="#C1272D"/>
</g>
<defs>
<clipPath id="clip0_476_148">
<rect width="400" height="400" fill="white"/>
</clipPath>
</defs>
</svg>
