<svg width="400" height="400" viewBox="0 0 400 400" fill="none" xmlns="http://www.w3.org/2000/svg">
<path d="M300 0H100C44.7715 0 0 44.7715 0 100V300C0 355.228 44.7715 400 100 400H300C355.228 400 400 355.228 400 300V100C400 44.7715 355.228 0 300 0Z" fill="#F5F5F5"/>
<path d="M333.379 203.165C333.379 193.973 332.489 184.485 331.006 175.59H202.619V228.071H276.153C273.188 244.972 263.403 259.797 248.874 269.286L292.757 303.384C318.553 279.367 333.379 244.379 333.379 203.165Z" fill="#4280EF"/>
<path d="M202.619 336C239.386 336 270.222 323.843 292.757 303.088L248.874 269.286C236.717 277.588 221.002 282.332 202.619 282.332C167.038 282.332 137.091 258.315 126.12 226.292L81.0513 260.984C104.179 306.942 151.027 336 202.619 336Z" fill="#34A353"/>
<path d="M126.12 225.996C120.487 209.095 120.487 190.712 126.12 173.811L81.0514 138.823C61.7784 177.369 61.7784 222.735 81.0514 260.984L126.12 225.996Z" fill="#F6B704"/>
<path d="M202.619 117.771C221.892 117.475 240.868 124.887 254.804 138.23L293.647 99.0912C269.036 75.9637 236.421 63.5104 202.619 63.8069C151.027 63.8069 104.179 92.8646 81.0513 138.823L126.12 173.811C137.091 141.492 167.038 117.771 202.619 117.771Z" fill="#E54335"/>
</svg>
