<svg width="400" height="400" viewBox="0 0 400 400" fill="none" xmlns="http://www.w3.org/2000/svg">
<path d="M300 0H100C44.7715 0 0 44.7715 0 100V300C0 355.228 44.7715 400 100 400H300C355.228 400 400 355.228 400 300V100C400 44.7715 355.228 0 300 0Z" fill="#F5F5F5"/>
<g clip-path="url(#clip0_371_684)">
<path d="M199.501 336.002C274.336 336.002 335.002 275.336 335.002 200.501C335.002 125.666 274.336 65 199.501 65C124.666 65 64 125.666 64 200.501C64 275.336 124.666 336.002 199.501 336.002Z" fill="#34E0A1"/>
<path d="M283.193 174.066L299.545 156.277H263.284C245.132 143.877 223.209 136.655 199.501 136.655C175.822 136.655 153.96 143.893 135.838 156.277H99.4883L115.838 174.066C105.816 183.21 99.533 196.383 99.533 211.007C99.533 238.607 121.909 260.983 149.509 260.983C162.621 260.983 174.564 255.926 183.481 247.66L199.499 265.101L215.518 247.676C224.434 255.943 236.365 260.983 249.475 260.983C277.075 260.983 299.482 238.607 299.482 211.007C299.496 196.367 293.213 183.196 283.191 174.066H283.193ZM149.523 244.829C130.84 244.829 115.702 229.69 115.702 211.007C115.702 192.324 130.842 177.186 149.523 177.186C168.206 177.186 183.345 192.326 183.345 211.007C183.345 229.688 168.204 244.829 149.523 244.829ZM199.515 210.023C199.515 187.767 183.33 168.661 161.968 160.501C173.521 155.671 186.192 152.993 199.501 152.993C212.808 152.993 225.495 155.671 237.048 160.501C215.703 168.678 199.517 187.767 199.517 210.023H199.515ZM249.491 244.829C230.808 244.829 215.67 229.69 215.67 211.007C215.67 192.324 230.81 177.186 249.491 177.186C268.175 177.186 283.313 192.326 283.313 211.007C283.313 229.688 268.172 244.829 249.491 244.829ZM249.491 193.263C239.695 193.263 231.762 201.196 231.762 210.993C231.762 220.788 239.695 228.721 249.491 228.721C259.286 228.721 267.219 220.788 267.219 210.993C267.219 201.212 259.286 193.263 249.491 193.263ZM167.253 211.007C167.253 220.802 159.32 228.735 149.523 228.735C139.728 228.735 131.795 220.802 131.795 211.007C131.795 201.21 139.728 193.277 149.523 193.277C159.318 193.263 167.253 201.21 167.253 211.007Z" fill="black"/>
</g>
<defs>
<clipPath id="clip0_371_684">
<rect width="271" height="271" fill="white" transform="translate(64 65)"/>
</clipPath>
</defs>
</svg>
