<svg width="400" height="400" viewBox="0 0 400 400" fill="none" xmlns="http://www.w3.org/2000/svg">
<path d="M300 0H100C44.7715 0 0 44.7715 0 100V300C0 355.228 44.7715 400 100 400H300C355.228 400 400 355.228 400 300V100C400 44.7715 355.228 0 300 0Z" fill="#F5F5F5"/>
<path d="M200.065 67.0454C144.549 67.0454 128.313 67.1027 125.157 67.3645C113.764 68.3115 106.675 70.1054 98.9513 73.9509C92.9992 76.9065 88.3051 80.3327 83.6722 85.1354C75.235 93.894 70.1215 104.67 68.2704 117.478C67.3705 123.696 67.1087 124.965 67.0555 156.726C67.035 167.314 67.0555 181.247 67.0555 199.937C67.0555 255.409 67.1168 271.63 67.3827 274.78C68.3032 285.866 70.0418 292.841 73.7235 300.471C80.7596 315.075 94.1978 326.039 110.029 330.13C115.511 331.541 121.565 332.318 129.338 332.687C132.631 332.83 166.196 332.932 199.781 332.932C233.366 332.932 266.952 332.891 270.163 332.727C279.163 332.304 284.389 331.602 290.167 330.109C306.101 325.998 319.293 315.198 326.473 300.389C330.083 292.943 331.913 285.702 332.742 275.195C332.922 272.904 332.997 236.378 332.997 199.902C332.997 163.419 332.916 126.961 332.736 124.67C331.897 113.993 330.066 106.813 326.34 99.2245C323.282 93.0125 319.886 88.3734 314.957 83.63C306.16 75.2272 295.401 70.1136 282.581 68.2645C276.369 67.3665 275.131 67.1006 243.346 67.0454H200.065Z" fill="url(#paint0_radial_371_684)"/>
<path d="M200.065 67.0454C144.549 67.0454 128.313 67.1027 125.157 67.3645C113.764 68.3115 106.675 70.1054 98.9513 73.9509C92.9992 76.9065 88.3051 80.3327 83.6722 85.1354C75.235 93.894 70.1215 104.67 68.2704 117.478C67.3705 123.696 67.1087 124.965 67.0555 156.726C67.035 167.314 67.0555 181.247 67.0555 199.937C67.0555 255.409 67.1168 271.63 67.3827 274.78C68.3032 285.866 70.0418 292.841 73.7235 300.471C80.7596 315.075 94.1978 326.039 110.029 330.13C115.511 331.541 121.565 332.318 129.338 332.687C132.631 332.83 166.196 332.932 199.781 332.932C233.366 332.932 266.952 332.891 270.163 332.727C279.163 332.304 284.389 331.602 290.167 330.109C306.101 325.998 319.293 315.198 326.473 300.389C330.083 292.943 331.913 285.702 332.742 275.195C332.922 272.904 332.997 236.378 332.997 199.902C332.997 163.419 332.916 126.961 332.736 124.67C331.897 113.993 330.066 106.813 326.34 99.2245C323.282 93.0125 319.886 88.3734 314.957 83.63C306.16 75.2272 295.401 70.1136 282.581 68.2645C276.369 67.3665 275.131 67.1006 243.346 67.0454H200.065Z" fill="url(#paint1_radial_371_684)"/>
<path d="M200.004 101.818C173.34 101.818 169.994 101.935 159.522 102.411C149.07 102.89 141.935 104.545 135.693 106.973C129.235 109.48 123.758 112.835 118.301 118.294C112.84 123.752 109.485 129.229 106.969 135.685C104.535 141.929 102.878 149.066 102.408 159.514C101.94 169.987 101.817 173.335 101.817 200C101.817 226.664 101.936 230.001 102.41 240.473C102.891 250.926 104.545 258.06 106.971 264.303C109.481 270.76 112.835 276.238 118.295 281.695C123.75 287.157 129.227 290.519 135.68 293.027C141.927 295.455 149.063 297.11 159.513 297.589C169.986 298.065 173.33 298.182 199.992 298.182C226.657 298.182 229.993 298.065 240.466 297.589C250.918 297.11 258.06 295.455 264.307 293.027C270.762 290.519 276.232 287.157 281.687 281.695C287.148 276.238 290.502 270.76 293.018 264.305C295.432 258.06 297.088 250.924 297.579 240.475C298.05 230.003 298.173 226.664 298.173 200C298.173 173.335 298.05 169.989 297.579 159.516C297.088 149.064 295.432 141.929 293.018 135.687C290.502 129.229 287.148 123.752 281.687 118.294C276.225 112.833 270.764 109.478 264.301 106.973C258.042 104.545 250.904 102.89 240.452 102.411C229.979 101.935 226.645 101.818 199.973 101.818H200.004ZM191.196 119.511C193.81 119.507 196.727 119.511 200.004 119.511C226.218 119.511 229.325 119.605 239.676 120.076C249.249 120.514 254.444 122.113 257.905 123.457C262.487 125.237 265.753 127.364 269.187 130.8C272.624 134.237 274.751 137.509 276.534 142.091C277.878 145.548 279.48 150.743 279.915 160.316C280.386 170.666 280.488 173.775 280.488 199.977C280.488 226.18 280.386 229.289 279.915 239.639C279.478 249.212 277.878 254.407 276.534 257.864C274.755 262.446 272.624 265.708 269.187 269.142C265.751 272.579 262.489 274.706 257.905 276.486C254.448 277.836 249.249 279.431 239.676 279.869C229.327 280.339 226.218 280.442 200.004 280.442C173.788 280.442 170.681 280.339 160.331 279.869C150.759 279.427 145.564 277.827 142.101 276.484C137.519 274.704 134.247 272.577 130.81 269.14C127.374 265.704 125.247 262.439 123.463 257.856C122.119 254.399 120.518 249.203 120.082 239.631C119.612 229.281 119.518 226.172 119.518 199.953C119.518 173.734 119.612 170.642 120.082 160.292C120.52 150.719 122.119 145.523 123.463 142.062C125.243 137.481 127.374 134.208 130.81 130.772C134.247 127.335 137.519 125.208 142.101 123.424C145.562 122.074 150.759 120.479 160.331 120.039C169.388 119.63 172.898 119.507 191.196 119.487V119.511ZM252.411 135.814C245.907 135.814 240.63 141.085 240.63 147.591C240.63 154.096 245.907 159.373 252.411 159.373C258.915 159.373 264.192 154.096 264.192 147.591C264.192 141.087 258.915 135.809 252.411 135.809V135.814ZM200.004 149.579C172.16 149.579 149.585 172.155 149.585 200C149.585 227.845 172.16 250.41 200.004 250.41C227.848 250.41 250.415 227.845 250.415 200C250.415 172.155 227.848 149.579 200.004 149.579ZM200.004 167.273C218.077 167.273 232.73 181.924 232.73 200C232.73 218.074 218.077 232.727 200.004 232.727C181.929 232.727 167.278 218.074 167.278 200C167.278 181.924 181.929 167.273 200.004 167.273Z" fill="white"/>
<defs>
<radialGradient id="paint0_radial_371_684" cx="0" cy="0" r="1" gradientUnits="userSpaceOnUse" gradientTransform="translate(137.69 353.411) rotate(-90) scale(263.513 245.147)">
<stop stop-color="#FFDD55"/>
<stop offset="0.1" stop-color="#FFDD55"/>
<stop offset="0.5" stop-color="#FF543E"/>
<stop offset="1" stop-color="#C837AB"/>
</radialGradient>
<radialGradient id="paint1_radial_371_684" cx="0" cy="0" r="1" gradientUnits="userSpaceOnUse" gradientTransform="translate(22.4982 86.1994) rotate(78.678) scale(117.793 485.655)">
<stop stop-color="#3771C8"/>
<stop offset="0.128" stop-color="#3771C8"/>
<stop offset="1" stop-color="#6600FF" stop-opacity="0"/>
</radialGradient>
</defs>
</svg>
