<svg width="2328" height="354" viewBox="0 0 2328 354" fill="none" xmlns="http://www.w3.org/2000/svg">
<path d="M533.227 284V51.2727H582.432V147.295H682.318V51.2727H731.409V284H682.318V187.864H582.432V284H533.227ZM820.841 287.295C809.705 287.295 799.78 285.364 791.068 281.5C782.356 277.561 775.462 271.765 770.386 264.114C765.386 256.386 762.886 246.765 762.886 235.25C762.886 225.553 764.667 217.409 768.227 210.818C771.788 204.227 776.636 198.924 782.773 194.909C788.909 190.894 795.879 187.864 803.682 185.818C811.561 183.773 819.818 182.333 828.455 181.5C838.606 180.439 846.788 179.455 853 178.545C859.212 177.561 863.72 176.121 866.523 174.227C869.326 172.333 870.727 169.53 870.727 165.818V165.136C870.727 157.939 868.455 152.371 863.909 148.432C859.439 144.492 853.076 142.523 844.818 142.523C836.106 142.523 829.174 144.455 824.023 148.318C818.871 152.106 815.462 156.879 813.795 162.636L769.023 159C771.295 148.394 775.765 139.227 782.432 131.5C789.098 123.697 797.697 117.712 808.227 113.545C818.833 109.303 831.106 107.182 845.045 107.182C854.742 107.182 864.023 108.318 872.886 110.591C881.826 112.864 889.742 116.386 896.636 121.159C903.606 125.932 909.098 132.068 913.114 139.568C917.129 146.992 919.136 155.894 919.136 166.273V284H873.227V259.795H871.864C869.061 265.25 865.311 270.061 860.614 274.227C855.917 278.318 850.273 281.538 843.682 283.886C837.091 286.159 829.477 287.295 820.841 287.295ZM834.705 253.886C841.826 253.886 848.114 252.485 853.568 249.682C859.023 246.803 863.303 242.939 866.409 238.091C869.515 233.242 871.068 227.75 871.068 221.614V203.091C869.553 204.076 867.47 204.985 864.818 205.818C862.242 206.576 859.326 207.295 856.068 207.977C852.811 208.583 849.553 209.152 846.295 209.682C843.038 210.136 840.083 210.553 837.432 210.932C831.75 211.765 826.788 213.091 822.545 214.909C818.303 216.727 815.008 219.189 812.659 222.295C810.311 225.326 809.136 229.114 809.136 233.659C809.136 240.25 811.523 245.288 816.295 248.773C821.144 252.182 827.28 253.886 834.705 253.886ZM1035.33 353.091C1019.65 353.091 1006.2 350.932 994.989 346.614C983.852 342.371 974.989 336.576 968.398 329.227C961.807 321.879 957.527 313.621 955.557 304.455L1000.33 298.432C1001.69 301.917 1003.85 305.174 1006.81 308.205C1009.76 311.235 1013.66 313.659 1018.51 315.477C1023.44 317.371 1029.42 318.318 1036.47 318.318C1047 318.318 1055.67 315.742 1062.49 310.591C1069.38 305.515 1072.83 296.992 1072.83 285.023V253.091H1070.78C1068.66 257.939 1065.48 262.523 1061.24 266.841C1057 271.159 1051.54 274.682 1044.88 277.409C1038.21 280.136 1030.25 281.5 1021.01 281.5C1007.91 281.5 995.973 278.47 985.216 272.409C974.534 266.273 966.011 256.917 959.648 244.341C953.36 231.689 950.216 215.705 950.216 196.386C950.216 176.614 953.436 160.098 959.875 146.841C966.314 133.583 974.875 123.659 985.557 117.068C996.314 110.477 1008.09 107.182 1020.9 107.182C1030.67 107.182 1038.85 108.848 1045.44 112.182C1052.03 115.439 1057.34 119.53 1061.35 124.455C1065.44 129.303 1068.59 134.076 1070.78 138.773H1072.6V109.455H1120.67V285.705C1120.67 300.553 1117.03 312.977 1109.76 322.977C1102.49 332.977 1092.41 340.477 1079.53 345.477C1066.73 350.553 1052 353.091 1035.33 353.091ZM1036.35 245.136C1044.16 245.136 1050.75 243.205 1056.12 239.341C1061.58 235.402 1065.75 229.795 1068.62 222.523C1071.58 215.174 1073.06 206.386 1073.06 196.159C1073.06 185.932 1071.62 177.068 1068.74 169.568C1065.86 161.992 1061.69 156.121 1056.24 151.955C1050.78 147.788 1044.16 145.705 1036.35 145.705C1028.4 145.705 1021.69 147.864 1016.24 152.182C1010.78 156.424 1006.66 162.333 1003.85 169.909C1001.05 177.485 999.648 186.235 999.648 196.159C999.648 206.235 1001.05 214.947 1003.85 222.295C1006.73 229.568 1010.86 235.212 1016.24 239.227C1021.69 243.167 1028.4 245.136 1036.35 245.136ZM1238.74 287.409C1220.78 287.409 1205.33 283.773 1192.38 276.5C1179.5 269.152 1169.57 258.773 1162.6 245.364C1155.63 231.879 1152.15 215.932 1152.15 197.523C1152.15 179.568 1155.63 163.811 1162.6 150.25C1169.57 136.689 1179.38 126.121 1192.03 118.545C1204.76 110.97 1219.69 107.182 1236.81 107.182C1248.32 107.182 1259.04 109.038 1268.97 112.75C1278.97 116.386 1287.68 121.879 1295.1 129.227C1302.6 136.576 1308.44 145.818 1312.6 156.955C1316.77 168.015 1318.85 180.97 1318.85 195.818V209.114H1171.47V179.114H1273.28C1273.28 172.144 1271.77 165.97 1268.74 160.591C1265.71 155.212 1261.5 151.008 1256.12 147.977C1250.82 144.871 1244.65 143.318 1237.6 143.318C1230.25 143.318 1223.74 145.023 1218.06 148.432C1212.45 151.765 1208.06 156.273 1204.88 161.955C1201.69 167.561 1200.06 173.811 1199.99 180.705V209.227C1199.99 217.864 1201.58 225.326 1204.76 231.614C1208.02 237.902 1212.6 242.75 1218.51 246.159C1224.42 249.568 1231.43 251.273 1239.53 251.273C1244.91 251.273 1249.84 250.515 1254.31 249C1258.78 247.485 1262.6 245.212 1265.78 242.182C1268.97 239.152 1271.39 235.439 1273.06 231.045L1317.83 234C1315.56 244.758 1310.9 254.152 1303.85 262.182C1296.88 270.136 1287.87 276.348 1276.81 280.818C1265.82 285.212 1253.13 287.409 1238.74 287.409ZM1398.85 183.091V284H1350.44V109.455H1396.58V140.25H1398.62C1402.49 130.098 1408.97 122.068 1418.06 116.159C1427.15 110.174 1438.17 107.182 1451.12 107.182C1463.25 107.182 1473.81 109.833 1482.83 115.136C1491.84 120.439 1498.85 128.015 1503.85 137.864C1508.85 147.636 1511.35 159.303 1511.35 172.864V284H1462.94V181.5C1463.02 170.818 1460.29 162.485 1454.76 156.5C1449.23 150.439 1441.62 147.409 1431.92 147.409C1425.41 147.409 1419.65 148.811 1414.65 151.614C1409.72 154.417 1405.86 158.508 1403.06 163.886C1400.33 169.189 1398.93 175.591 1398.85 183.091ZM1676.66 118.205C1675.76 109.038 1671.85 101.917 1664.96 96.8409C1658.07 91.7651 1648.71 89.2273 1636.89 89.2273C1628.86 89.2273 1622.08 90.3636 1616.55 92.6364C1611.02 94.8333 1606.78 97.9015 1603.82 101.841C1600.95 105.78 1599.51 110.25 1599.51 115.25C1599.35 119.417 1600.23 123.053 1602.12 126.159C1604.09 129.265 1606.78 131.955 1610.19 134.227C1613.6 136.424 1617.54 138.356 1622.01 140.023C1626.48 141.614 1631.25 142.977 1636.32 144.114L1657.23 149.114C1667.38 151.386 1676.7 154.417 1685.19 158.205C1693.67 161.992 1701.02 166.652 1707.23 172.182C1713.45 177.712 1718.26 184.227 1721.66 191.727C1725.15 199.227 1726.93 207.826 1727.01 217.523C1726.93 231.765 1723.29 244.114 1716.1 254.568C1708.98 264.947 1698.67 273.015 1685.19 278.773C1671.78 284.455 1655.6 287.295 1636.66 287.295C1617.88 287.295 1601.51 284.417 1587.57 278.659C1573.71 272.902 1562.88 264.379 1555.07 253.091C1547.35 241.727 1543.29 227.674 1542.91 210.932H1590.53C1591.06 218.735 1593.29 225.25 1597.23 230.477C1601.25 235.629 1606.59 239.53 1613.26 242.182C1620 244.758 1627.61 246.045 1636.1 246.045C1644.43 246.045 1651.66 244.833 1657.8 242.409C1664.01 239.985 1668.82 236.614 1672.23 232.295C1675.64 227.977 1677.35 223.015 1677.35 217.409C1677.35 212.182 1675.79 207.788 1672.69 204.227C1669.66 200.667 1665.19 197.636 1659.28 195.136C1653.45 192.636 1646.29 190.364 1637.8 188.318L1612.46 181.955C1592.84 177.182 1577.35 169.72 1565.98 159.568C1554.62 149.417 1548.98 135.742 1549.05 118.545C1548.98 104.455 1552.73 92.1439 1560.3 81.6136C1567.95 71.0833 1578.45 62.8636 1591.78 56.9545C1605.11 51.0454 1620.26 48.0909 1637.23 48.0909C1654.51 48.0909 1669.58 51.0454 1682.46 56.9545C1695.41 62.8636 1705.49 71.0833 1712.69 81.6136C1719.88 92.1439 1723.6 104.341 1723.82 118.205H1676.66ZM1871.12 209.682V109.455H1919.53V284H1873.06V252.295H1871.24C1867.3 262.523 1860.75 270.742 1851.58 276.955C1842.49 283.167 1831.39 286.273 1818.28 286.273C1806.62 286.273 1796.35 283.621 1787.49 278.318C1778.63 273.015 1771.69 265.477 1766.69 255.705C1761.77 245.932 1759.27 234.227 1759.19 220.591V109.455H1807.6V211.955C1807.68 222.258 1810.44 230.402 1815.9 236.386C1821.35 242.371 1828.66 245.364 1837.83 245.364C1843.66 245.364 1849.12 244.038 1854.19 241.386C1859.27 238.659 1863.36 234.644 1866.47 229.341C1869.65 224.038 1871.2 217.485 1871.12 209.682ZM1958.26 284V109.455H2006.66V284H1958.26ZM1982.57 86.9545C1975.38 86.9545 1969.2 84.5682 1964.05 79.7954C1958.98 74.947 1956.44 69.1515 1956.44 62.4091C1956.44 55.7424 1958.98 50.0227 1964.05 45.25C1969.2 40.4015 1975.38 37.9773 1982.57 37.9773C1989.77 37.9773 1995.91 40.4015 2000.98 45.25C2006.13 50.0227 2008.71 55.7424 2008.71 62.4091C2008.71 69.1515 2006.13 74.947 2000.98 79.7954C1995.91 84.5682 1989.77 86.9545 1982.57 86.9545ZM2138.28 109.455V145.818H2033.17V109.455H2138.28ZM2057.03 67.6364H2105.44V230.364C2105.44 234.833 2106.13 238.318 2107.49 240.818C2108.85 243.242 2110.75 244.947 2113.17 245.932C2115.67 246.917 2118.55 247.409 2121.81 247.409C2124.08 247.409 2126.35 247.22 2128.62 246.841C2130.9 246.386 2132.64 246.045 2133.85 245.818L2141.47 281.841C2139.04 282.598 2135.63 283.47 2131.24 284.455C2126.84 285.515 2121.5 286.159 2115.22 286.386C2103.55 286.841 2093.32 285.288 2084.53 281.727C2075.82 278.167 2069.04 272.636 2064.19 265.136C2059.34 257.636 2056.96 248.167 2057.03 236.727V67.6364ZM2247.49 287.409C2229.53 287.409 2214.08 283.773 2201.12 276.5C2188.25 269.152 2178.32 258.773 2171.35 245.364C2164.38 231.879 2160.9 215.932 2160.9 197.523C2160.9 179.568 2164.38 163.811 2171.35 150.25C2178.32 136.689 2188.13 126.121 2200.78 118.545C2213.51 110.97 2228.44 107.182 2245.56 107.182C2257.07 107.182 2267.79 109.038 2277.72 112.75C2287.72 116.386 2296.43 121.879 2303.85 129.227C2311.35 136.576 2317.19 145.818 2321.35 156.955C2325.52 168.015 2327.6 180.97 2327.6 195.818V209.114H2180.22V179.114H2282.03C2282.03 172.144 2280.52 165.97 2277.49 160.591C2274.46 155.212 2270.25 151.008 2264.88 147.977C2259.57 144.871 2253.4 143.318 2246.35 143.318C2239 143.318 2232.49 145.023 2226.81 148.432C2221.2 151.765 2216.81 156.273 2213.62 161.955C2210.44 167.561 2208.81 173.811 2208.74 180.705V209.227C2208.74 217.864 2210.33 225.326 2213.51 231.614C2216.77 237.902 2221.35 242.75 2227.26 246.159C2233.17 249.568 2240.18 251.273 2248.28 251.273C2253.66 251.273 2258.59 250.515 2263.06 249C2267.53 247.485 2271.35 245.212 2274.53 242.182C2277.72 239.152 2280.14 235.439 2281.81 231.045L2326.58 234C2324.31 244.758 2319.65 254.152 2312.6 262.182C2305.63 270.136 2296.62 276.348 2285.56 280.818C2274.57 285.212 2261.88 287.409 2247.49 287.409Z" fill="white"/>
<path fill-rule="evenodd" clip-rule="evenodd" d="M0.345393 56.1607C0.345388 41.6444 0.345391 34.3862 2.20722 28.4992C6.13504 16.0795 15.8643 6.35032 28.2839 2.4225C34.1709 0.560672 41.4291 0.560679 55.9454 0.560681L61.2836 0.560673C38.956 36.0943 43.2579 83.5711 74.1893 114.502L123.687 164L163.285 124.402L113.787 74.9045C99.7284 60.8456 99.7284 38.0517 113.787 23.9928C127.846 9.93394 150.64 9.93395 164.699 23.9928L245.309 104.603L330.345 189.639V274.961V274.961V274.961C330.345 289.477 330.345 296.735 328.484 302.622C324.556 315.042 314.827 324.771 302.407 328.699C296.52 330.561 289.262 330.561 274.745 330.561H266.186C289.487 294.887 285.474 246.591 254.148 215.265L204.65 165.768L165.053 205.366L214.55 254.863C228.609 268.922 228.609 291.716 214.55 305.775C200.491 319.834 177.697 319.834 163.638 305.775L83.0281 225.165L0.345393 142.482V56.1607ZM0.345398 221.678L0.345397 274.961L0.345405 274.961C0.345397 289.477 0.345394 296.735 2.20723 302.622C6.13504 315.042 15.8643 324.771 28.2839 328.699C34.1709 330.561 41.4291 330.561 55.9454 330.561L109.228 330.561L43.4301 264.763L0.345398 221.678ZM284.907 65.005L220.463 0.560675H274.745H274.746H274.746C289.262 0.560675 296.52 0.560664 302.407 2.42252C314.827 6.35033 324.556 16.0796 328.484 28.4992C330.345 34.3862 330.345 41.6444 330.345 56.1607V110.443L284.907 65.005Z" fill="#A3E635"/>
</svg>
